<svg width="278" height="208" viewBox="0 0 278 208" fill="none" xmlns="http://www.w3.org/2000/svg">
<path d="M272.504 61.4789L142.66 0.812489C140.344 -0.27083 137.656 -0.27083 135.34 0.812489L5.49594 61.4789C2.44406 62.9012 0.5 65.9648 0.5 69.3334V156H17.8122V82.9416L35.1245 91.0305V173.333C35.1245 177.243 37.7364 180.662 41.5066 181.695L136.726 207.695C137.47 207.898 138.23 208 139 208C139.769 208 140.53 207.898 141.274 207.695L236.493 181.695C240.263 180.663 242.875 177.243 242.875 173.333V91.0305L272.504 77.1873C275.556 75.7657 277.5 72.7015 277.5 69.3334C277.5 65.9648 275.556 62.9012 272.504 61.4789ZM225.563 166.715L139 190.345L52.4373 166.715V99.1201L135.34 137.854C136.498 138.396 137.749 138.667 139 138.667C140.251 138.667 141.502 138.396 142.66 137.854L225.562 99.1201C225.563 99.1194 225.563 166.715 225.563 166.715ZM139 120.436L29.6216 69.3334L139 18.2305L248.378 69.3334L139 120.436Z" fill="#FF893B"/>
</svg>
